<?xml version="1.0" encoding="UTF-8"?>
<svg width="28px" height="16px" viewBox="0 0 28 16" version="1.1" xmlns="http://www.w3.org/2000/svg" xmlns:xlink="http://www.w3.org/1999/xlink">
    <title>Line 2</title>
    <g stroke="none" stroke-width="1" fill="none" fill-rule="evenodd">
        <g id="Desktop-HD" transform="translate(-925.000000, -1991.000000)" fill="currentColor" fill-rule="nonzero">
            <g id="Project-3" transform="translate(212.000000, 1698.000000)">
                <path id="Line-2" d="M728.135319,293.327113 L728.240261,293.378424 L740.240261,300.128424 C740.882154,300.489489 740.917815,301.382385 740.347243,301.802542 L740.240261,301.871576 L728.240261,308.621576 C727.758903,308.892339 727.149188,308.721619 726.878424,308.240261 C726.627001,307.793286 726.756245,307.235636 727.161393,306.941463 L727.259739,306.878424 L735.932,302 L714,302 C713.447715,302 713,301.552285 713,301 C713,300.487164 713.38604,300.064493 713.883379,300.006728 L714,300 L735.932,300 L727.259739,295.121576 C726.812764,294.870152 726.633634,294.326469 726.827113,293.864681 L726.878424,293.759739 C727.129848,293.312764 727.673531,293.133634 728.135319,293.327113 Z"></path>
            </g>
        </g>
    </g>
</svg>