<?xml version="1.0" encoding="UTF-8"?>
<svg width="51px" height="50px" viewBox="0 0 51 50" version="1.1" xmlns="http://www.w3.org/2000/svg" xmlns:xlink="http://www.w3.org/1999/xlink">
    <title>Octicons-mark-github</title>
    <g id="Page-1" stroke="none" stroke-width="1" fill="none" fill-rule="evenodd">
        <g id="Desktop-HD" transform="translate(-625.000000, -2304.000000)" fill="#FFFFFF">
            <g id="Octicons-mark-github" transform="translate(625.000000, 2304.000000)">
                <path d="M25.5,0 C11.41125,0 0,11.4309215 0,25.5439587 C0,36.8471604 7.299375,46.3942149 17.435625,49.7787895 C18.710625,50.0022991 19.18875,49.2359803 19.18875,48.5654514 C19.18875,47.9587824 19.156875,45.9471957 19.156875,43.8078891 C12.75,44.9892972 11.0925,42.2433217 10.5825,40.806474 C10.295625,40.0720852 9.0525,37.8050588 7.96875,37.1983898 C7.07625,36.7194406 5.80125,35.5380325 7.936875,35.5061026 C9.945,35.4741726 11.379375,37.3580396 11.8575,38.1243583 C14.1525,41.9878821 17.818125,40.9022638 19.284375,40.2317349 C19.5075,38.5713776 20.176875,37.4538294 20.91,36.8152304 C15.23625,36.1766315 9.3075,33.973465 9.3075,24.2029008 C9.3075,21.4249953 10.295625,19.1260391 11.92125,17.337962 C11.66625,16.699363 10.77375,14.0811072 12.17625,10.5688129 C12.17625,10.5688129 14.311875,9.89828399 19.18875,13.1870687 C21.22875,12.6123296 23.39625,12.3249601 25.56375,12.3249601 C27.73125,12.3249601 29.89875,12.6123296 31.93875,13.1870687 C36.815625,9.86635404 38.95125,10.5688129 38.95125,10.5688129 C40.35375,14.0811072 39.46125,16.699363 39.20625,17.337962 C40.831875,19.1260391 41.82,21.3930654 41.82,24.2029008 C41.82,34.005395 35.859375,36.1766315 30.185625,36.8152304 C31.11,37.6134791 31.906875,39.1461167 31.906875,41.5408628 C31.906875,44.9573673 31.875,47.7033428 31.875,48.5654514 C31.875,49.2359803 32.353125,50.0342291 33.628125,49.7787895 C43.700625,46.3942149 51,36.8152304 51,25.5439587 C51,11.4309215 39.58875,0 25.5,0 Z" id="Path"></path>
            </g>
        </g>
    </g>
</svg>