<?xml version="1.0" encoding="UTF-8"?>
<svg width="50px" height="57px" viewBox="0 0 50 57" version="1.1" xmlns="http://www.w3.org/2000/svg" xmlns:xlink="http://www.w3.org/1999/xlink">
    <title>GraphQL_Logo</title>
    <g id="Page-1" stroke="none" stroke-width="1" fill="none" fill-rule="evenodd">
        <g id="Desktop-HD" transform="translate(-713.000000, -1059.000000)" fill="#6D7278" fill-rule="nonzero">
            <g id="Project-1" transform="translate(144.000000, 871.000000)">
                <g id="Group-2" transform="translate(485.000000, 101.000000)">
                    <g id="GraphQL_Logo" transform="translate(84.000000, 87.000000)">
                        <polygon id="Rectangle" transform="translate(15.050686, 22.315804) rotate(-149.999272) translate(-15.050686, -22.315804) " points="13.8394259 -0.606554337 16.2122882 -0.603980775 16.2619455 45.2381619 13.8890832 45.2355884"></polygon>
                        <rect id="Rectangle" x="1.75438596" y="38.5964912" width="45.6140351" height="2.63157895"></rect>
                        <polygon id="Rectangle" transform="translate(15.056129, 45.340193) rotate(-149.999272) translate(-15.056129, -45.340193) " points="1.83256698 44.1379358 28.2771166 44.1666171 28.2796902 46.5424509 1.83514055 46.5137696"></polygon>
                        <polygon id="Rectangle" transform="translate(34.938186, 10.814021) rotate(-149.999272) translate(-34.938186, -10.814021) " points="21.7146241 9.61176323 48.1591737 9.64044449 48.1617473 12.0162783 21.7171977 11.987597"></polygon>
                        <polygon id="Rectangle" transform="translate(15.062471, 10.804970) rotate(-120.000728) translate(-15.062471, -10.804970) " points="13.8602139 -2.41859202 16.2360477 -2.41601846 16.264729 24.0285312 13.8888952 24.0259576"></polygon>
                        <polygon id="Rectangle" transform="translate(34.954457, 22.316233) rotate(-120.000728) translate(-34.954457, -22.316233) " points="12.032099 21.1049736 57.8742417 21.154631 57.8768153 23.5274933 12.0346726 23.4778359"></polygon>
                        <rect id="Rectangle" x="3.50877193" y="14.9122807" width="2.63157895" height="26.3157895"></rect>
                        <rect id="Rectangle" x="43.8596491" y="14.9122807" width="2.63157895" height="26.3157895"></rect>
                        <polygon id="Rectangle" transform="translate(34.938086, 45.326975) rotate(-120.000728) translate(-34.938086, -45.326975) " points="33.887975 33.8260451 35.9632515 33.8282931 35.9881964 56.8279041 33.9129199 56.8256561"></polygon>
                        <path d="M49.3474393,42.3238658 C48.0219803,44.6318011 45.0673113,45.4195395 42.7615649,44.0928222 C40.4558186,42.7661049 39.6688273,39.8086309 40.9942863,37.5006956 C42.3197453,35.1927603 45.2744143,34.4050219 47.5801606,35.7317392 C49.8997138,37.0722765 50.6867051,40.0159305 49.3474393,42.3238658" id="Path"></path>
                        <path d="M9.00510288,18.6396553 C7.67838559,20.9475906 4.72091161,21.7353289 2.41297632,20.4086117 C0.105041025,19.0818944 -0.682697369,16.1244204 0.644019926,13.8164851 C1.97073722,11.5085498 4.92821119,10.7208114 7.23614649,12.0475287 C9.54408178,13.388066 10.3318202,16.33172 9.00510288,18.6396553" id="Path"></path>
                        <path d="M0.644019926,42.3238658 C-0.682697369,40.0159305 0.105041025,37.0722765 2.41297632,35.7317392 C4.72091161,34.4050219 7.66456561,35.1927603 9.00510288,37.5006956 C10.3318202,39.8086309 9.54408178,42.7522849 7.23614649,44.0928222 C4.91439122,45.4195395 1.97073722,44.6318011 0.644019926,42.3238658" id="Path"></path>
                        <path d="M40.9948971,18.6396553 C39.6681798,16.33172 40.4559182,13.388066 42.7638535,12.0475287 C45.0717888,10.7208114 48.0154428,11.5085498 49.3559801,13.8164851 C50.6826974,16.1244204 49.894959,19.0680744 47.5870237,20.4086117 C45.2790884,21.7353289 42.3216144,20.9475906 40.9948971,18.6396553" id="Path"></path>
                        <path d="M25,56.1403509 C22.3319761,56.1403509 20.1754386,53.9838134 20.1754386,51.3157895 C20.1754386,48.6477655 22.3319761,46.4912281 25,46.4912281 C27.6680239,46.4912281 29.8245614,48.6477655 29.8245614,51.3157895 C29.8245614,53.9699894 27.6680239,56.1403509 25,56.1403509" id="Path"></path>
                        <path d="M25,9.64912281 C22.3319761,9.64912281 20.1754386,7.49258533 20.1754386,4.8245614 C20.1754386,2.15653748 22.3319761,0 25,0 C27.6680239,0 29.8245614,2.15653748 29.8245614,4.8245614 C29.8245614,7.49258533 27.6680239,9.64912281 25,9.64912281" id="Path"></path>
                    </g>
                </g>
            </g>
        </g>
    </g>
</svg>