<?xml version="1.0" encoding="UTF-8"?>
<svg width="50px" height="50px" viewBox="0 0 50 50" version="1.1" xmlns="http://www.w3.org/2000/svg" xmlns:xlink="http://www.w3.org/1999/xlink">
    <title>iconmonstr-linkedin-3</title>
    <g id="Page-1" stroke="none" stroke-width="1" fill="none" fill-rule="evenodd">
        <g id="Desktop-HD" transform="translate(-547.000000, -2304.000000)" fill="#FFFFFF" fill-rule="nonzero">
            <g id="iconmonstr-linkedin-3" transform="translate(547.000000, 2304.000000)">
                <path d="M39.5833333,0 L10.4166667,0 C4.66458333,0 0,4.66458333 0,10.4166667 L0,39.5833333 C0,45.3354167 4.66458333,50 10.4166667,50 L39.5833333,50 C45.3375,50 50,45.3354167 50,39.5833333 L50,10.4166667 C50,4.66458333 45.3375,0 39.5833333,0 Z M16.6666667,39.5833333 L10.4166667,39.5833333 L10.4166667,16.6666667 L16.6666667,16.6666667 L16.6666667,39.5833333 Z M13.5416667,14.025 C11.5291667,14.025 9.89583333,12.3791667 9.89583333,10.35 C9.89583333,8.32083333 11.5291667,6.675 13.5416667,6.675 C15.5541667,6.675 17.1875,8.32083333 17.1875,10.35 C17.1875,12.3791667 15.55625,14.025 13.5416667,14.025 Z M41.6666667,39.5833333 L35.4166667,39.5833333 L35.4166667,27.9083333 C35.4166667,20.8916667 27.0833333,21.4229167 27.0833333,27.9083333 L27.0833333,39.5833333 L20.8333333,39.5833333 L20.8333333,16.6666667 L27.0833333,16.6666667 L27.0833333,20.34375 C29.9916667,14.95625 41.6666667,14.5583333 41.6666667,25.5020833 L41.6666667,39.5833333 Z" id="Shape"></path>
            </g>
        </g>
    </g>
</svg>