<?xml version="1.0" encoding="UTF-8"?>
<svg width="50px" height="43px" viewBox="0 0 50 43" version="1.1" xmlns="http://www.w3.org/2000/svg" xmlns:xlink="http://www.w3.org/1999/xlink">
    <title>Group</title>
    <defs>
        <path d="M5,0.139124335 L45,0.139124335 C47.7614237,0.139124335 50,2.37770059 50,5.13912434 L50,36.1391243 C50,38.9005481 47.7614237,41.1391243 45,41.1391243 L5,41.1391243 C2.23857625,41.1391243 3.38176876e-16,38.9005481 0,36.1391243 L0,5.13912434 C-3.38176876e-16,2.37770059 2.23857625,0.139124335 5,0.139124335 Z" id="path-1"></path>
    </defs>
    <g id="Page-1" stroke="none" stroke-width="1" fill="none" fill-rule="evenodd">
        <g id="Desktop-HD" transform="translate(-787.000000, -2303.000000)">
            <g id="Group" transform="translate(787.000000, 2303.860876)">
                <mask id="mask-2" fill="white">
                    <use xlink:href="#path-1"></use>
                </mask>
                <path stroke="#FFFFFF" stroke-width="6" d="M45,3.13912434 L5,3.13912434 C4.44771525,3.13912434 3.94771525,3.36298196 3.58578644,3.72491077 C3.22385763,4.08683959 3,4.58683959 3,5.13912434 L3,36.1391243 C3,36.6914091 3.22385763,37.1914091 3.58578644,37.5533379 C3.94771525,37.9152667 4.44771525,38.1391243 5,38.1391243 L45,38.1391243 C45.5522847,38.1391243 46.0522847,37.9152667 46.4142136,37.5533379 C46.7761424,37.1914091 47,36.6914091 47,36.1391243 L47,5.13912434 C47,4.58683959 46.7761424,4.08683959 46.4142136,3.72491077 C46.0522847,3.36298196 45.5522847,3.13912434 45,3.13912434 Z"></path>
                <polyline id="Line" stroke="#FFFFFF" stroke-width="6" stroke-linecap="square" mask="url(#mask-2)" points="3 3.13912434 25 17.8029213 47 3.13912434"></polyline>
            </g>
        </g>
    </g>
</svg>