<?xml version="1.0" encoding="UTF-8"?>
<svg width="50px" height="45px" viewBox="0 0 50 45" version="1.1" xmlns="http://www.w3.org/2000/svg" xmlns:xlink="http://www.w3.org/1999/xlink">
    <title>React-icon</title>
    <g id="Page-1" stroke="none" stroke-width="1" fill="none" fill-rule="evenodd">
        <g id="Desktop-HD" transform="translate(-640.000000, -1070.000000)" fill="#6D7278" fill-rule="nonzero">
            <g id="Project-1" transform="translate(144.000000, 871.000000)">
                <g id="Group-2" transform="translate(485.000000, 101.000000)">
                    <g id="React-icon" transform="translate(11.000000, 98.000000)">
                        <path d="M49.9288618,22.2052846 C49.9288618,18.902439 45.7926829,15.7723577 39.4512195,13.8313008 C40.9146341,7.36788618 40.2642276,2.22560976 37.398374,0.579268293 C36.7378049,0.193089431 35.9654472,0.0101626016 35.1219512,0.0101626016 L35.1219512,2.27642276 C35.5894309,2.27642276 35.9654472,2.36788618 36.2804878,2.54065041 C37.6626016,3.33333333 38.2621951,6.35162602 37.7947154,10.2337398 C37.6829268,11.1890244 37.5,12.195122 37.2764228,13.2215447 C35.2845528,12.7337398 33.1097561,12.3577236 30.8231707,12.1138211 C29.4512195,10.2337398 28.0284553,8.52642276 26.5955285,7.03252033 C29.9085366,3.95325203 33.0182927,2.26626016 35.1321138,2.26626016 L35.1321138,0 C35.1321138,0 35.1321138,0 35.1321138,0 C32.3373984,0 28.6788618,1.99186992 24.9796748,5.44715447 C21.2804878,2.01219512 17.6219512,0.0406504065 14.8272358,0.0406504065 L14.8272358,2.30691057 C16.9308943,2.30691057 20.050813,3.98373984 23.3638211,7.04268293 C21.9410569,8.53658537 20.5182927,10.2337398 19.1666667,12.1138211 C16.8699187,12.3577236 14.695122,12.7337398 12.703252,13.2317073 C12.4695122,12.2154472 12.296748,11.2296748 12.1747967,10.2845528 C11.6971545,6.40243902 12.2865854,3.38414634 13.6585366,2.58130081 C13.9634146,2.39837398 14.3597561,2.31707317 14.8272358,2.31707317 L14.8272358,0.0508130081 C14.8272358,0.0508130081 14.8272358,0.0508130081 14.8272358,0.0508130081 C13.9735772,0.0508130081 13.2012195,0.233739837 12.5304878,0.619918699 C9.67479675,2.26626016 9.03455285,7.39837398 10.5081301,13.8414634 C4.18699187,15.7926829 0.0711382114,18.9126016 0.0711382114,22.2052846 C0.0711382114,25.5081301 4.20731707,28.6382114 10.5487805,30.5792683 C9.08536585,37.0426829 9.73577236,42.1849593 12.601626,43.8313008 C13.2621951,44.2174797 14.0345528,44.4004065 14.8882114,44.4004065 C17.6829268,44.4004065 21.3414634,42.4085366 25.0406504,38.953252 C28.7398374,42.3882114 32.398374,44.3597561 35.1930894,44.3597561 C36.046748,44.3597561 36.8191057,44.1768293 37.4898374,43.7906504 C40.3455285,42.1443089 40.9857724,37.0121951 39.5121951,30.5691057 C45.8130081,28.6280488 49.9288618,25.4979675 49.9288618,22.2052846 Z M36.6971545,15.4268293 C36.3211382,16.7378049 35.8536585,18.0894309 35.3252033,19.4410569 C34.9085366,18.6280488 34.4715447,17.8150407 33.9939024,17.0020325 C33.5264228,16.1890244 33.0284553,15.3963415 32.5304878,14.6239837 C33.9735772,14.8373984 35.3658537,15.101626 36.6971545,15.4268293 Z M32.0426829,26.25 C31.25,27.6219512 30.4369919,28.9227642 29.5934959,30.1321138 C28.0792683,30.2642276 26.5447154,30.3353659 25,30.3353659 C23.4654472,30.3353659 21.9308943,30.2642276 20.4268293,30.1422764 C19.5833333,28.9329268 18.7601626,27.6422764 17.9674797,26.2804878 C17.195122,24.949187 16.4939024,23.597561 15.8536585,22.2357724 C16.4837398,20.8739837 17.195122,19.5121951 17.9573171,18.1808943 C18.75,16.8089431 19.5630081,15.5081301 20.4065041,14.2987805 C21.9207317,14.1666667 23.4552846,14.0955285 25,14.0955285 C26.5345528,14.0955285 28.0691057,14.1666667 29.5731707,14.2886179 C30.4166667,15.4979675 31.2398374,16.7886179 32.0325203,18.1504065 C32.804878,19.4817073 33.5060976,20.8333333 34.1463415,22.195122 C33.5060976,23.5569106 32.804878,24.9186992 32.0426829,26.25 Z M35.3252033,24.9288618 C35.8739837,26.2906504 36.3414634,27.652439 36.7276423,28.9735772 C35.3963415,29.2987805 33.9939024,29.5731707 32.5406504,29.7865854 C33.0386179,29.004065 33.5365854,28.2012195 34.004065,27.3780488 C34.4715447,26.5650407 34.9085366,25.7418699 35.3252033,24.9288618 Z M25.0203252,35.7723577 C24.0752033,34.796748 23.1300813,33.7093496 22.195122,32.5203252 C23.1097561,32.5609756 24.0447154,32.5914634 24.9898374,32.5914634 C25.945122,32.5914634 26.8902439,32.5711382 27.8150407,32.5203252 C26.9004065,33.7093496 25.9552846,34.796748 25.0203252,35.7723577 Z M17.4593496,29.7865854 C16.0162602,29.5731707 14.6239837,29.3089431 13.2926829,28.9837398 C13.6686992,27.6727642 14.1361789,26.3211382 14.6646341,24.9695122 C15.0813008,25.7825203 15.5182927,26.5955285 15.995935,27.4085366 C16.4735772,28.2215447 16.9613821,29.0142276 17.4593496,29.7865854 Z M24.9695122,8.63821138 C25.9146341,9.61382114 26.8597561,10.7012195 27.7947154,11.8902439 C26.8800813,11.8495935 25.945122,11.8191057 25,11.8191057 C24.0447154,11.8191057 23.0995935,11.8394309 22.1747967,11.8902439 C23.0894309,10.7012195 24.0345528,9.61382114 24.9695122,8.63821138 Z M17.449187,14.6239837 C16.9512195,15.4065041 16.453252,16.2093496 15.9857724,17.0325203 C15.5182927,17.8455285 15.0813008,18.6585366 14.6646341,19.4715447 C14.1158537,18.1097561 13.648374,16.7479675 13.2621951,15.4268293 C14.5934959,15.1117886 15.995935,14.8373984 17.449187,14.6239837 Z M8.25203252,27.347561 C4.65447154,25.8130081 2.32723577,23.800813 2.32723577,22.2052846 C2.32723577,20.6097561 4.65447154,18.5873984 8.25203252,17.0630081 C9.12601626,16.6869919 10.0813008,16.351626 11.0670732,16.0365854 C11.6463415,18.0284553 12.4085366,20.101626 13.3536585,22.2256098 C12.4186992,24.3394309 11.6666667,26.402439 11.097561,28.3841463 C10.0914634,28.0691057 9.13617886,27.7235772 8.25203252,27.347561 Z M13.7195122,41.8699187 C12.3373984,41.0772358 11.7378049,38.0589431 12.2052846,34.1768293 C12.3170732,33.2215447 12.5,32.2154472 12.7235772,31.1890244 C14.7154472,31.6768293 16.8902439,32.0528455 19.1768293,32.296748 C20.5487805,34.1768293 21.9715447,35.8841463 23.4044715,37.3780488 C20.0914634,40.4573171 16.9817073,42.1443089 14.8678862,42.1443089 C14.4105691,42.1341463 14.0243902,42.0426829 13.7195122,41.8699187 Z M37.8252033,34.1260163 C38.3028455,38.0081301 37.7134146,41.0264228 36.3414634,41.8292683 C36.0365854,42.0121951 35.6402439,42.0934959 35.1727642,42.0934959 C33.0691057,42.0934959 29.949187,40.4166667 26.6361789,37.3577236 C28.0589431,35.8638211 29.4817073,34.1666667 30.8333333,32.2865854 C33.1300813,32.0426829 35.304878,31.6666667 37.296748,31.1686992 C37.5304878,32.195122 37.7134146,33.1808943 37.8252033,34.1260163 Z M41.7378049,27.347561 C40.8638211,27.7235772 39.9085366,28.0589431 38.9227642,28.3739837 C38.3434959,26.3821138 37.5813008,24.3089431 36.6361789,22.1849593 C37.5711382,20.0711382 38.3231707,18.0081301 38.8922764,16.0264228 C39.898374,16.3414634 40.8536585,16.6869919 41.7479675,17.0630081 C45.3455285,18.597561 47.6727642,20.6097561 47.6727642,22.2052846 C47.6626016,23.800813 45.3353659,25.8231707 41.7378049,27.347561 Z" id="Shape"></path>
                        <circle id="Oval" cx="24.9898374" cy="22.2052846" r="4.64430894"></circle>
                    </g>
                </g>
            </g>
        </g>
    </g>
</svg>