<?xml version="1.0" encoding="UTF-8"?>
<svg width="50px" height="48px" viewBox="0 0 50 48" version="1.1" xmlns="http://www.w3.org/2000/svg" xmlns:xlink="http://www.w3.org/1999/xlink">
    <title>redux</title>
    <g id="Page-1" stroke="none" stroke-width="1" fill="none" fill-rule="evenodd">
        <g id="Desktop-HD" transform="translate(-146.000000, -1499.000000)" fill="#6D7278" fill-rule="nonzero">
            <g id="Project-2" transform="translate(32.000000, 1281.000000)">
                <g id="Group-2" transform="translate(39.000000, 60.000000)">
                    <g id="redux" transform="translate(75.000000, 158.000000)">
                        <path d="M34.556962,33.164557 C36.3924051,32.9746835 37.7848101,31.3924051 37.721519,29.4936709 C37.6582278,27.5949367 36.0759494,26.0759494 34.1772152,26.0759494 L34.0506329,26.0759494 C32.0886076,26.1392405 30.5696203,27.7848101 30.6329114,29.7468354 C30.6962025,30.6962025 31.0759494,31.5189873 31.6455696,32.0886076 C29.4936709,36.3291139 26.2025316,39.4303797 21.2658228,42.0253165 C17.9113924,43.7974684 14.4303797,44.4303797 10.9493671,43.9873418 C8.10126582,43.6075949 5.88607595,42.3417722 4.49367089,40.2531646 C2.46835443,37.1518987 2.27848101,33.7974684 3.98734177,30.443038 C5.18987342,28.0379747 7.08860759,26.2658228 8.29113924,25.3797468 C8.03797468,24.556962 7.65822785,23.164557 7.46835443,22.1518987 C-1.70886076,28.7974684 -0.759493671,37.7848101 2.02531646,42.0253165 C4.11392405,45.1898734 8.35443038,47.1518987 13.0379747,47.1518987 C14.3037975,47.1518987 15.5696203,47.0253165 16.835443,46.7088608 C24.9367089,45.1265823 31.0759494,40.3164557 34.556962,33.164557 L34.556962,33.164557 Z" id="Path"></path>
                        <path d="M45.6962025,25.3164557 C40.8860759,19.6835443 33.7974684,16.5822785 25.6962025,16.5822785 L24.6835443,16.5822785 C24.1139241,15.443038 22.9113924,14.6835443 21.5822785,14.6835443 L21.4556962,14.6835443 C19.4936709,14.7468354 17.9746835,16.3924051 18.0379747,18.3544304 C18.1012658,20.2531646 19.6835443,21.7721519 21.5822785,21.7721519 L21.7088608,21.7721519 C23.1012658,21.7088608 24.3037975,20.8227848 24.8101266,19.6202532 L25.9493671,19.6202532 C30.7594937,19.6202532 35.3164557,21.0126582 39.4303797,23.7341772 C42.5949367,25.8227848 44.8734177,28.5443038 46.1392405,31.835443 C47.2151899,34.4936709 47.1518987,37.0886076 46.0126582,39.3037975 C44.2405063,42.6582278 41.2658228,44.4936709 37.3417722,44.4936709 C34.8101266,44.4936709 32.4050633,43.7341772 31.1392405,43.164557 C30.443038,43.7974684 29.1772152,44.8101266 28.2911392,45.443038 C31.0126582,46.7088608 33.7974684,47.4050633 36.4556962,47.4050633 C42.5316456,47.4050633 47.0253165,44.0506329 48.7341772,40.6962025 C50.5696203,37.0253165 50.443038,30.6962025 45.6962025,25.3164557 Z" id="Path"></path>
                        <path d="M13.5443038,34.2405063 C13.6075949,36.1392405 15.1898734,37.6582278 17.0886076,37.6582278 L17.2151899,37.6582278 C19.1772152,37.5949367 20.6962025,35.9493671 20.6329114,33.9873418 C20.5696203,32.0886076 18.9873418,30.5696203 17.0886076,30.5696203 L16.9620253,30.5696203 C16.835443,30.5696203 16.6455696,30.5696203 16.5189873,30.6329114 C13.9240506,26.3291139 12.8481013,21.6455696 13.2278481,16.5822785 C13.4810127,12.7848101 14.7468354,9.49367089 16.9620253,6.7721519 C18.7974684,4.43037975 22.3417722,3.29113924 24.7468354,3.2278481 C31.4556962,3.10126582 34.3037975,11.4556962 34.4936709,14.8101266 C35.3164557,15 36.7088608,15.443038 37.6582278,15.7594937 C36.8987342,5.50632911 30.5696203,0.189873418 24.4936709,0.189873418 C18.7974684,0.189873418 13.5443038,4.30379747 11.4556962,10.3797468 C8.5443038,18.4810127 10.443038,26.2658228 13.9873418,32.4050633 C13.6708861,32.8481013 13.4810127,33.5443038 13.5443038,34.2405063 L13.5443038,34.2405063 Z" id="Path"></path>
                    </g>
                </g>
            </g>
        </g>
    </g>
</svg>