<?xml version="1.0" encoding="utf-8"?>
<!-- Generator: Adobe Illustrator 24.1.2, SVG Export Plug-In . SVG Version: 6.00 Build 0)  -->
<svg version="1.1" id="Layer_1" xmlns="http://www.w3.org/2000/svg" xmlns:xlink="http://www.w3.org/1999/xlink" x="0px" y="0px"
	 viewBox="0 0 115.38 83.3" style="enable-background:new 0 0 115.38 83.3;" xml:space="preserve">
<style type="text/css">
	.st0{clip-path:url(#SVGID_2_);}
	.st1{clip-path:url(#SVGID_4_);}
	.st2{clip-path:url(#SVGID_6_);}
</style>
<g>
	<g>
		<defs>
			
				<rect id="SVGID_1_" x="-54.08" y="6.83" transform="matrix(0.7071 -0.7071 0.7071 0.7071 -11.673 22.7061)" width="151.3" height="37.22"/>
		</defs>
		<clipPath id="SVGID_2_">
			<use xlink:href="#SVGID_1_"  style="overflow:visible;"/>
		</clipPath>
		<path class="st0" d="M16,48.49c0.5,0.87,1.14,1.57,1.93,2.12c0.79,0.55,1.69,0.96,2.71,1.22c1.02,0.26,2.08,0.39,3.19,0.39
			c0.79,0,1.61-0.09,2.48-0.28c0.87-0.18,1.65-0.47,2.36-0.87c0.71-0.39,1.3-0.92,1.77-1.57c0.47-0.65,0.71-1.48,0.71-2.48
			c0-1.68-1.11-2.94-3.34-3.78c-2.23-0.84-5.34-1.68-9.32-2.52c-1.63-0.37-3.21-0.8-4.76-1.3c-1.55-0.5-2.92-1.15-4.13-1.97
			c-1.21-0.81-2.18-1.84-2.91-3.07c-0.73-1.23-1.1-2.74-1.1-4.52c0-2.62,0.51-4.77,1.53-6.45c1.02-1.68,2.37-3,4.05-3.97
			c1.68-0.97,3.56-1.65,5.66-2.05c2.1-0.39,4.25-0.59,6.45-0.59s4.34,0.21,6.41,0.63c2.07,0.42,3.92,1.13,5.55,2.12
			c1.62,1,2.98,2.32,4.05,3.97c1.07,1.65,1.72,3.74,1.93,6.25H30.59c-0.16-2.15-0.97-3.6-2.44-4.37c-1.47-0.76-3.2-1.14-5.19-1.14
			c-0.63,0-1.31,0.04-2.05,0.12c-0.73,0.08-1.4,0.25-2.01,0.51c-0.6,0.26-1.11,0.64-1.53,1.14c-0.42,0.5-0.63,1.17-0.63,2.01
			c0,1,0.37,1.81,1.1,2.44c0.73,0.63,1.69,1.14,2.87,1.53c1.18,0.39,2.53,0.75,4.05,1.06c1.52,0.31,3.07,0.66,4.64,1.02
			c1.62,0.37,3.21,0.81,4.76,1.34c1.55,0.52,2.92,1.22,4.13,2.08c1.21,0.86,2.18,1.94,2.91,3.22c0.73,1.29,1.1,2.87,1.1,4.76
			c0,2.67-0.54,4.92-1.61,6.73c-1.08,1.81-2.48,3.26-4.21,4.37c-1.73,1.1-3.71,1.88-5.94,2.32c-2.23,0.44-4.5,0.67-6.8,0.67
			c-2.36,0-4.67-0.24-6.92-0.71c-2.26-0.47-4.26-1.26-6.02-2.36c-1.76-1.1-3.2-2.56-4.33-4.37c-1.13-1.81-1.74-4.08-1.85-6.8h10.62
			C15.25,46.59,15.5,47.62,16,48.49z"/>
	</g>
	<g>
		<defs>
			
				<rect id="SVGID_3_" x="-16.35" y="33.27" transform="matrix(0.7071 -0.7071 0.7071 0.7071 -22.6113 58.4902)" width="151.3" height="46.54"/>
		</defs>
		<clipPath id="SVGID_4_">
			<use xlink:href="#SVGID_3_"  style="overflow:visible;"/>
		</clipPath>
		<path class="st1" d="M66.44,64.79c-0.45,2.1-1.4,4.05-2.87,5.86c-1.47,1.81-3.59,3.34-6.37,4.6c-2.78,1.26-6.5,1.89-11.17,1.89
			c-1.99,0-4.03-0.25-6.1-0.75c-2.07-0.5-3.96-1.27-5.66-2.32c-1.7-1.05-3.12-2.4-4.25-4.05c-1.13-1.65-1.77-3.63-1.93-5.94h11.09
			c0.52,2.1,1.55,3.55,3.07,4.37c1.52,0.81,3.28,1.22,5.27,1.22c3.15,0,5.44-0.94,6.88-2.83c1.44-1.89,2.14-4.27,2.08-7.16v-5.35
			h-0.16c-1.21,2.15-2.92,3.74-5.15,4.76c-2.23,1.02-4.58,1.53-7.04,1.53c-3.04,0-5.66-0.54-7.87-1.61
			c-2.2-1.07-4.01-2.54-5.43-4.41c-1.42-1.86-2.45-4.04-3.11-6.53c-0.66-2.49-0.98-5.12-0.98-7.9c0-2.62,0.38-5.15,1.14-7.59
			c0.76-2.44,1.87-4.59,3.34-6.45c1.47-1.86,3.29-3.34,5.47-4.44c2.18-1.1,4.68-1.65,7.51-1.65c2.67,0,5.02,0.5,7.04,1.49
			c2.02,1,3.71,2.67,5.07,5.03h0.16v-5.43h10.62v38.07C67.11,60.83,66.89,62.69,66.44,64.79z M51.14,51.26
			c1.21-0.63,2.2-1.47,2.99-2.52c0.79-1.05,1.38-2.24,1.77-3.58c0.39-1.34,0.59-2.74,0.59-4.21c0-1.68-0.16-3.26-0.47-4.76
			c-0.31-1.49-0.84-2.82-1.57-3.97c-0.73-1.15-1.7-2.07-2.91-2.75c-1.21-0.68-2.73-1.02-4.56-1.02c-1.57,0-2.92,0.31-4.05,0.94
			c-1.13,0.63-2.07,1.48-2.83,2.56c-0.76,1.08-1.31,2.31-1.65,3.7c-0.34,1.39-0.51,2.85-0.51,4.37c0,1.47,0.14,2.92,0.43,4.37
			c0.29,1.44,0.79,2.74,1.49,3.89c0.71,1.15,1.64,2.1,2.79,2.83c1.15,0.73,2.6,1.1,4.33,1.1C48.55,52.21,49.94,51.89,51.14,51.26z"
			/>
	</g>
	<g>
		<defs>
			
				<rect id="SVGID_5_" x="36.03" y="13.77" transform="matrix(0.7071 -0.7071 0.7071 0.7071 3.8283 68.9897)" width="98.32" height="32.21"/>
		</defs>
		<clipPath id="SVGID_6_">
			<use xlink:href="#SVGID_5_"  style="overflow:visible;"/>
		</clipPath>
		<path class="st2" d="M99.82,54.49c-1.31,2.2-3.03,3.79-5.15,4.76c-2.12,0.97-4.52,1.46-7.2,1.46c-3.04,0-5.72-0.59-8.02-1.77
			c-2.31-1.18-4.21-2.78-5.7-4.8c-1.49-2.02-2.62-4.34-3.38-6.96c-0.76-2.62-1.14-5.35-1.14-8.18c0-2.73,0.38-5.36,1.14-7.91
			c0.76-2.54,1.89-4.78,3.38-6.73c1.49-1.94,3.37-3.5,5.62-4.68c2.25-1.18,4.88-1.77,7.87-1.77c2.41,0,4.71,0.51,6.88,1.53
			c2.18,1.02,3.89,2.53,5.15,4.52h0.16V3.52h11.17v56.16H99.98v-5.19H99.82z M99.35,34.4c-0.31-1.55-0.85-2.91-1.61-4.09
			c-0.76-1.18-1.74-2.14-2.95-2.87c-1.21-0.73-2.73-1.1-4.56-1.1c-1.84,0-3.38,0.37-4.64,1.1c-1.26,0.73-2.27,1.7-3.03,2.91
			c-0.76,1.21-1.31,2.58-1.65,4.13c-0.34,1.55-0.51,3.16-0.51,4.84c0,1.57,0.18,3.15,0.55,4.72c0.37,1.57,0.96,2.98,1.77,4.21
			c0.81,1.23,1.84,2.23,3.07,2.99c1.23,0.76,2.71,1.14,4.44,1.14c1.84,0,3.37-0.37,4.6-1.1c1.23-0.73,2.21-1.72,2.95-2.95
			c0.73-1.23,1.26-2.64,1.57-4.21c0.31-1.57,0.47-3.2,0.47-4.88C99.82,37.55,99.66,35.94,99.35,34.4z"/>
	</g>
	<path d="M110.35,49.81v10.15H99.63V49.81H110.35z"/>
</g>
</svg>
